<?xml version="1.0" encoding="utf-8"?>
<!-- Generator: Adobe Illustrator 16.0.0, SVG Export Plug-In . SVG Version: 6.00 Build 0)  -->
<!DOCTYPE svg PUBLIC "-//W3C//DTD SVG 1.1//EN" "http://www.w3.org/Graphics/SVG/1.1/DTD/svg11.dtd">
<svg version="1.1" id="Layer_1" xmlns="http://www.w3.org/2000/svg" xmlns:xlink="http://www.w3.org/1999/xlink" x="0px" y="0px"
	 width="2048px" height="2048px" viewBox="0 0 2048 2048" enable-background="new 0 0 2048 2048" xml:space="preserve">
<g>
	<path d="M777.69,178.155v1691.689c0,32.829-26.501,59.33-59.331,59.33c-32.829,0-59.33-26.501-59.33-59.33v-786.412H304.947
		l126.587,126.587c23.143,23.143,23.143,60.724,0,83.866c-11.469,11.673-26.706,17.407-41.943,17.407s-30.249-5.734-41.923-17.407
		l-227.86-227.86c-5.55-5.53-9.892-11.879-12.862-19.19c-0.798-1.781-1.393-3.769-1.986-5.529c-0.594-1.986-1.188-4.157-1.577-6.328
		c-0.594-3.563-0.983-7.127-0.983-10.875c0-3.563,0.205-6.923,1.003-10.281c0.389-2.376,0.799-4.751,1.577-6.922
		c0.983-3.769,2.56-7.312,4.342-10.69c2.765-5.141,6.328-9.893,10.486-14.05l227.86-228.045c23.143-23.143,60.724-23.143,83.866,0
		c23.143,23.348,23.143,60.724,0,84.05L304.947,964.751h354.082V178.155c0-32.625,26.501-59.33,59.33-59.33
		C751.168,118.825,777.69,145.531,777.69,178.155z"/>
</g>
<g>
	<g>
		<path d="M1945.6,1024.103c0,3.769-0.409,7.312-1.004,10.875c-0.594,2.97-1.371,5.938-2.375,8.704
			c-0.594,1.781-1.372,3.563-2.171,5.14c-1.986,4.342-4.546,8.5-7.517,12.268c-0.204,0.39-0.389,0.595-0.799,0.983
			c-1.188,1.393-2.375,2.765-3.563,3.953l-227.84,227.86c-11.674,11.673-26.891,17.407-41.943,17.407
			c-15.217,0-30.454-5.734-41.923-17.407c-23.347-23.143-23.347-60.724,0-83.866l126.587-126.587h-354.273v786.412
			c0,32.829-26.501,59.33-59.33,59.33c-32.625,0-59.33-26.501-59.33-59.33V178.155c0-32.625,26.705-59.33,59.33-59.33
			c32.829,0,59.33,26.706,59.33,59.33v786.596h354.273l-126.587-126.587c-23.347-23.347-23.347-60.723,0-84.05
			c23.143-23.142,60.724-23.142,83.866,0l227.859,228.065c1.188,1.188,2.376,2.561,3.564,3.953c0.389,0.389,0.594,0.594,0.799,0.982
			c1.188,1.577,2.375,3.154,3.358,4.936c0.983,1.188,1.577,2.171,2.171,3.359c1.004,1.781,1.986,3.748,2.765,5.529
			c1.782,4.157,3.175,8.499,3.748,12.861c0.205,1.577,0.594,3.359,0.799,5.141C1945.6,1020.539,1945.6,1022.32,1945.6,1024.103z"/>
	</g>
</g>
</svg>
