<?xml version="1.0" encoding="utf-8"?>
<!-- Generator: Adobe Illustrator 16.0.0, SVG Export Plug-In . SVG Version: 6.00 Build 0)  -->
<!DOCTYPE svg PUBLIC "-//W3C//DTD SVG 1.1//EN" "http://www.w3.org/Graphics/SVG/1.1/DTD/svg11.dtd">
<svg version="1.1" id="Layer_1" xmlns="http://www.w3.org/2000/svg" xmlns:xlink="http://www.w3.org/1999/xlink" x="0px" y="0px"
	 width="2048px" height="2048px" viewBox="0 0 2048 2048" enable-background="new 0 0 2048 2048" xml:space="preserve">
<g>
	<path d="M577.563,178.155v1691.688c0,32.829-26.501,59.33-59.331,59.33c-32.829,0-59.33-26.501-59.33-59.33v-786.412h-193.98
		l126.587,126.588c23.143,23.143,23.143,60.724,0,83.865c-11.47,11.673-26.706,17.407-41.943,17.407s-30.249-5.734-41.923-17.407
		l-227.86-227.859c-5.55-5.53-9.892-11.879-12.862-19.19c-0.798-1.781-1.393-3.769-1.986-5.529
		c-0.594-1.985-1.188-4.156-1.577-6.327c-0.594-3.563-0.983-7.127-0.983-10.875c0-3.563,0.205-6.924,1.003-10.281
		c0.389-2.376,0.799-4.751,1.577-6.922c0.983-3.77,2.56-7.313,4.342-10.69c2.765-5.141,6.328-9.893,10.486-14.05l227.86-228.045
		c23.143-23.144,60.724-23.144,83.866,0c23.143,23.348,23.143,60.724,0,84.05L264.922,964.751h193.979V178.155
		c0-32.625,26.501-59.33,59.33-59.33C551.041,118.825,577.563,145.531,577.563,178.155z"/>
</g>
<g>
	<g>
		<path d="M1975.617,1024.104c0,3.769-0.408,7.312-1.004,10.875c-0.594,2.97-1.371,5.938-2.375,8.703
			c-0.594,1.781-1.371,3.563-2.171,5.141c-1.985,4.342-4.546,8.5-7.517,12.268c-0.204,0.391-0.389,0.595-0.799,0.983
			c-1.188,1.393-2.375,2.765-3.563,3.953l-227.84,227.859c-11.674,11.673-26.892,17.407-41.942,17.407
			c-15.218,0-30.455-5.734-41.924-17.407c-23.347-23.143-23.347-60.724,0-83.866l126.588-126.587h-194.18v786.412
			c0,32.829-26.5,59.33-59.33,59.33c-32.625,0-59.33-26.501-59.33-59.33V178.155c0-32.625,26.705-59.33,59.33-59.33
			c32.83,0,59.33,26.706,59.33,59.33v786.596h194.18l-126.587-126.587c-23.347-23.347-23.347-60.723,0-84.05
			c23.144-23.143,60.724-23.143,83.866,0l227.859,228.064c1.188,1.188,2.375,2.562,3.563,3.953c0.39,0.39,0.594,0.594,0.799,0.982
			c1.188,1.577,2.375,3.153,3.358,4.936c0.982,1.188,1.576,2.171,2.171,3.359c1.004,1.781,1.985,3.748,2.765,5.528
			c1.782,4.157,3.176,8.5,3.748,12.861c0.205,1.577,0.594,3.359,0.799,5.142C1975.617,1020.539,1975.617,1022.32,1975.617,1024.104z
			"/>
	</g>
</g>
</svg>
