<svg xmlns:x="http://ns.adobe.com/Extensibility/1.0/" xmlns:i="http://ns.adobe.com/AdobeIllustrator/10.0/" xmlns:graph="http://ns.adobe.com/Graphs/1.0/" xmlns="http://www.w3.org/2000/svg" xmlns:xlink="http://www.w3.org/1999/xlink" version="1.1" x="0px" y="0px" viewBox="0 0 64 64" enable-background="new 0 0 64 64" xml:space="preserve"><metadata><sfw xmlns="http://ns.adobe.com/SaveForWeb/1.0/"><slices></slices><sliceSourceBounds y="-8160" x="-8165" width="16389" height="16384" bottomLeftOrigin="true"></sliceSourceBounds></sfw></metadata><g><g><path d="M56.424,27.094c-0.349-0.163-0.765-0.11-1.064,0.138L45,35.865V28c0-0.375-0.209-0.718-0.542-0.889    c-0.335-0.173-0.735-0.142-1.039,0.075L31,36.057V28c0-0.375-0.209-0.718-0.542-0.889c-0.333-0.172-0.733-0.142-1.039,0.075    L17,36.057V16.005c0-0.552-0.448-1-1-1h-6c-0.552,0-1,0.448-1,1V58c0,0.553,0.448,1,1,1h46c0.553,0,1-0.447,1-1V28    C57,27.612,56.775,27.259,56.424,27.094z M15,17.005v2h-4v-2H15z M55,57H11V21.005h4V38c0,0.375,0.209,0.718,0.542,0.89    c0.333,0.171,0.733,0.143,1.039-0.076L29,29.943V38c0,0.375,0.209,0.718,0.542,0.89c0.333,0.171,0.733,0.143,1.039-0.076    L43,29.943V38c0,0.388,0.225,0.741,0.576,0.905c0.35,0.164,0.766,0.112,1.064-0.137L55,30.135V57z"></path><path d="M24,43h-6c-0.552,0-1,0.447-1,1v8c0,0.553,0.448,1,1,1h6c0.552,0,1-0.447,1-1v-8C25,43.447,24.552,43,24,43z M23,51h-4v-6    h4V51z"></path><path d="M38,43h-6c-0.552,0-1,0.447-1,1v8c0,0.553,0.448,1,1,1h6c0.553,0,1-0.447,1-1v-8C39,43.447,38.553,43,38,43z M37,51h-4v-6    h4V51z"></path><path d="M46,53h6c0.553,0,1-0.447,1-1v-8c0-0.553-0.447-1-1-1h-6c-0.553,0-1,0.447-1,1v8C45,52.553,45.447,53,46,53z M47,45h4v6    h-4V45z"></path><path d="M14.69,10.729c1.887-1.799,4.471-3.724,5.31-3.724c0.53,0,1.61,1.01,2.399,1.747c1.18,1.103,2.295,2.144,3.514,2.25    c0.064,0.006,0.127,0.008,0.19,0.008c1.318,0,2.548-1.169,3.739-2.302c0.735-0.7,1.743-1.658,2.253-1.707    c0.488-0.051,1.67,1.079,2.374,1.751c1.151,1.097,2.238,2.133,3.434,2.249c2.13,0.215,5.736-3.228,6.801-4.285    c0.393-0.389,0.395-1.022,0.006-1.415c-0.39-0.393-1.024-0.394-1.414-0.005c-2.062,2.047-4.478,3.77-5.199,3.715    c-0.509-0.049-1.514-1.007-2.247-1.706C34.598,6.11,33.304,4.89,31.904,5.01c-1.197,0.115-2.287,1.151-3.44,2.249    c-0.75,0.715-1.908,1.791-2.377,1.751c-0.531-0.046-1.566-1.013-2.321-1.719C22.507,6.115,21.318,5.005,20,5.005    c-2.044,0-5.637,3.273-6.69,4.276c-0.4,0.381-0.415,1.014-0.034,1.414C13.658,11.096,14.29,11.109,14.69,10.729z"></path></g></g></svg>