<svg xmlns="http://www.w3.org/2000/svg" xmlns:xlink="http://www.w3.org/1999/xlink" version="1.1" x="0px" y="0px" viewBox="0 0 100 100" enable-background="new 0 0 100 100" xml:space="preserve"><g><polyline fill="none" stroke="#000000" stroke-width="1.896" stroke-miterlimit="10" points="4.724,42.973 10.366,47.004    16.009,42.973 21.654,47.004 27.298,42.973 32.942,47.004 38.585,42.973 44.225,47.004 49.867,42.973 55.512,47.004 61.156,42.973    66.802,47.004 72.448,42.973 78.092,47.004 83.739,42.973 89.392,47.004 95.044,42.973  "></polyline></g><circle cx="9.997" cy="52.197" r="1.178"></circle><circle cx="21.581" cy="52.197" r="1.178"></circle><circle cx="33.166" cy="52.197" r="1.178"></circle><circle cx="44.751" cy="52.197" r="1.178"></circle><circle cx="56.335" cy="52.197" r="1.178"></circle><circle cx="67.92" cy="52.197" r="1.178"></circle><circle cx="79.504" cy="52.197" r="1.178"></circle><circle cx="91.089" cy="52.197" r="1.179"></circle><circle cx="9.997" cy="57.891" r="1.178"></circle><circle cx="21.581" cy="57.891" r="1.178"></circle><circle cx="33.166" cy="57.891" r="1.178"></circle><circle cx="44.751" cy="57.891" r="1.178"></circle><circle cx="56.335" cy="57.891" r="1.178"></circle><circle cx="67.92" cy="57.891" r="1.178"></circle><circle cx="79.504" cy="57.891" r="1.178"></circle><circle cx="91.089" cy="57.891" r="1.179"></circle><circle cx="9.997" cy="63.585" r="1.178"></circle><circle cx="15.298" cy="52.197" r="1.178"></circle><circle cx="15.298" cy="57.891" r="1.178"></circle><circle cx="15.298" cy="63.585" r="1.178"></circle><circle cx="26.883" cy="52.197" r="1.178"></circle><circle cx="26.883" cy="57.891" r="1.178"></circle><circle cx="26.883" cy="63.585" r="1.178"></circle><circle cx="39.056" cy="52.197" r="1.178"></circle><circle cx="39.056" cy="57.891" r="1.178"></circle><circle cx="39.056" cy="63.585" r="1.178"></circle><circle cx="50.249" cy="52.197" r="1.178"></circle><circle cx="50.249" cy="57.891" r="1.178"></circle><circle cx="50.249" cy="63.585" r="1.178"></circle><circle cx="62.422" cy="52.197" r="1.178"></circle><circle cx="62.422" cy="57.891" r="1.178"></circle><circle cx="62.422" cy="63.585" r="1.178"></circle><circle cx="73.221" cy="52.197" r="1.178"></circle><circle cx="73.221" cy="57.891" r="1.178"></circle><circle cx="73.221" cy="63.585" r="1.178"></circle><circle cx="85.002" cy="52.197" r="1.178"></circle><circle cx="85.002" cy="57.891" r="1.178"></circle><circle cx="85.002" cy="63.585" r="1.178"></circle><circle cx="21.581" cy="63.585" r="1.178"></circle><circle cx="33.166" cy="63.585" r="1.178"></circle><circle cx="44.751" cy="63.585" r="1.178"></circle><circle cx="56.335" cy="63.585" r="1.178"></circle><circle cx="67.92" cy="63.585" r="1.178"></circle><circle cx="79.504" cy="63.585" r="1.178"></circle><circle cx="91.089" cy="63.585" r="1.179"></circle></svg>