<svg xmlns:x="http://ns.adobe.com/Extensibility/1.0/" xmlns:i="http://ns.adobe.com/AdobeIllustrator/10.0/" xmlns:graph="http://ns.adobe.com/Graphs/1.0/" xmlns="http://www.w3.org/2000/svg" xmlns:xlink="http://www.w3.org/1999/xlink" version="1.1" x="0px" y="0px" viewBox="0 0 100 100" enable-background="new 0 0 100 100" xml:space="preserve"><metadata><sfw xmlns="http://ns.adobe.com/SaveForWeb/1.0/"><slices></slices><sliceSourceBounds height="88" width="88.403" x="6.015" y="5" bottomLeftOrigin="true"></sliceSourceBounds><optimizationSettings><targetSettings targetSettingsID="0" fileFormat="GIFFormat"><GIFFormat transparency="true" lossy="0" noMatteColor="false" interlaced="false" numColors="256" includeCaption="false" matteColor="#FFFFFF" rolloverMasterPalette="false" autoReduce="false" reductionAlgorithm="selective" ditherAlgorithm="diffusion" webShiftPercent="0" ditherPercent="100"><colorTable isExact="false"></colorTable><lockedColors></lockedColors><colorShiftEntries></colorShiftEntries></GIFFormat></targetSettings></optimizationSettings></sfw></metadata><g><path d="M70,7H30c-2.206,0-4,1.794-4,4v75c0,2.206,1.794,4,4,4h40c2.206,0,4-1.794,4-4V11C74,8.794,72.206,7,70,7z M71,86   c0,0.552-0.448,1-1,1H30c-0.551,0-1-0.448-1-1V11c0-0.551,0.449-1,1-1h40c0.552,0,1,0.449,1,1V86z"></path><path d="M67.5,92h-5c-0.828,0-1.5,0.672-1.5,1.5s0.672,1.5,1.5,1.5h5c0.828,0,1.5-0.672,1.5-1.5S68.328,92,67.5,92z"></path><path d="M37.5,92h-5c-0.829,0-1.5,0.672-1.5,1.5s0.671,1.5,1.5,1.5h5c0.829,0,1.5-0.672,1.5-1.5S38.329,92,37.5,92z"></path><path d="M50,39.5c-10.477,0-19,8.523-19,19s8.523,19,19,19s19-8.523,19-19S60.477,39.5,50,39.5z M50,74.5c-8.822,0-16-7.178-16-16   s7.178-16,16-16s16,7.178,16,16S58.822,74.5,50,74.5z"></path><path d="M50,53.111c-2.971,0-5.389,2.417-5.389,5.389s2.417,5.389,5.389,5.389c2.972,0,5.389-2.417,5.389-5.389   S52.972,53.111,50,53.111z M50,60.889c-1.317,0-2.389-1.071-2.389-2.389s1.072-2.389,2.389-2.389c1.317,0,2.389,1.071,2.389,2.389   S51.317,60.889,50,60.889z"></path><path d="M50,30c3.584,0,6.5-2.916,6.5-6.5S53.584,17,50,17s-6.5,2.916-6.5,6.5S46.416,30,50,30z M50,20c1.93,0,3.5,1.57,3.5,3.5   S51.93,27,50,27s-3.5-1.57-3.5-3.5S48.07,20,50,20z"></path><path d="M50,45.333c-0.829,0-1.5,0.671-1.5,1.5s0.671,1.5,1.5,1.5c5.606,0,10.167,4.561,10.167,10.167c0,0.828,0.672,1.5,1.5,1.5   s1.5-0.672,1.5-1.5C63.167,51.24,57.261,45.333,50,45.333z"></path><path d="M21.494,49.511c-0.586-0.586-1.535-0.586-2.121,0c-4.484,4.483-4.484,11.78,0,16.264c0.293,0.293,0.677,0.439,1.061,0.439   s0.768-0.146,1.061-0.439c0.586-0.586,0.586-1.535,0-2.121c-3.314-3.314-3.314-8.707,0-12.021   C22.08,51.046,22.08,50.096,21.494,49.511z"></path><path d="M14.423,42.44c-0.586-0.586-1.535-0.586-2.121,0c-8.382,8.383-8.382,22.023,0,30.406c0.293,0.293,0.677,0.439,1.061,0.439   s0.768-0.146,1.061-0.439c0.586-0.586,0.586-1.535,0-2.121c-7.212-7.214-7.212-18.95,0-26.164   C15.009,43.975,15.009,43.025,14.423,42.44z"></path><path d="M78.939,49.511c-0.586,0.585-0.586,1.535,0,2.121c3.314,3.314,3.314,8.707,0,12.021c-0.586,0.586-0.586,1.535,0,2.121   c0.293,0.293,0.677,0.439,1.061,0.439s0.768-0.146,1.061-0.439c4.484-4.483,4.484-11.78,0-16.264   C80.475,48.925,79.525,48.925,78.939,49.511z"></path><path d="M88.132,42.439c-0.586-0.586-1.535-0.586-2.121,0c-0.586,0.585-0.586,1.535,0,2.121c7.212,7.214,7.212,18.95,0,26.164   c-0.586,0.586-0.586,1.535,0,2.121c0.293,0.293,0.677,0.439,1.061,0.439s0.768-0.146,1.061-0.439   C96.514,64.463,96.514,50.822,88.132,42.439z"></path></g></svg>