<?xml version="1.0" encoding="utf-8"?>
<!-- Generator: Adobe Illustrator 16.0.0, SVG Export Plug-In . SVG Version: 6.00 Build 0)  -->
<!DOCTYPE svg PUBLIC "-//W3C//DTD SVG 1.1//EN" "http://www.w3.org/Graphics/SVG/1.1/DTD/svg11.dtd">
<svg version="1.1" id="Layer_1" xmlns="http://www.w3.org/2000/svg" xmlns:xlink="http://www.w3.org/1999/xlink" x="0px" y="0px"
	 width="1548.155px" height="1296.129px" viewBox="270.246 393.257 1548.155 1296.129"
	 enable-background="new 270.246 393.257 1548.155 1296.129" xml:space="preserve">
<g>
	<g>
		<path d="M1746.239,830.96c-3.24-6.07-80.8-148.921-208.079-164.881c-101.581-12.749-207.501,50.44-246.54,146.95
			c-39.281,97.161,5.079,200.18,40.739,282.96c15.921,36.98,16.42,79.52,16.94,124.562c0.86,73.199,1.741,148.89,72.6,200.439
			c38.181,27.789,82.301,42.699,123.701,42.699c13.04,0,25.839-1.479,38.079-4.51c42.439-10.511,75.82-38.349,96.541-80.529
			c4.979-10.15,0.8-22.43-9.359-27.411c-10.182-5.02-22.422-0.798-27.401,9.352c-15.439,31.418-38.86,51.208-69.62,58.829
			c-39.48,9.771-87.261-2.02-127.86-31.55c-54.22-39.461-54.919-98.931-55.72-167.801c-0.561-47.09-1.12-95.778-20.3-140.28
			c-32.62-75.779-73.24-170.099-40.38-251.399c31.799-78.539,121.239-132.028,203.499-121.67
			c106.06,13.3,176.32,142.239,177.021,143.54c5.339,9.949,17.698,13.699,27.72,8.391
			C1747.779,853.319,1751.539,840.93,1746.239,830.96z"/>
		<path d="M1535.42,789c-48.359-8.609-91.441,11.67-121.16,57.049c-38.621,59.012-11.54,120.421,8.24,165.262
			c31.539,71.469,42.439,139.799,35.398,221.549c-0.979,11.27,7.382,21.19,18.642,22.161c0.601,0.06,1.2,0.08,1.78,0.08
			c10.52,0,19.459-8.051,20.379-18.721c7.68-88.979-4.26-163.49-38.719-241.609c-21.461-48.66-35.941-88.86-11.441-126.289
			c20.74-31.681,47.521-44.852,79.74-39.152c48.121,8.53,101.14,59.511,123.301,115.141c-13.981,2.831-30.74,8.96-45,21.951
			c-19.9,18.129-30.002,44.398-30.002,78.09c0,86.898,61.842,109.858,94.543,109.858c11.238,0,20.278-9.05,20.379-20.289
			c0.101-11.229-8.96-20.46-20.201-20.671c-8.979-0.17-53.76-4.288-53.76-68.898c0-21.541,5.521-37.561,16.4-47.61
			c16.94-15.64,42.78-13.76,42.92-13.731c6.521,0.592,13.021-1.949,17.34-6.918c4.34-4.96,6.021-11.7,4.52-18.11
			C1679.98,877.511,1606.719,801.63,1535.42,789z"/>
		<path d="M828.739,685.58c-6.72-3.551-14.86-3.09-21.119,1.221L546.3,865.65H354.459c-11.319,0-20.479,9.169-20.479,20.48v331.719
			c0,11.311,9.16,20.479,20.479,20.479h192.222l260.939,178.59c3.459,2.382,7.5,3.582,11.56,3.582c3.28,0,6.559-0.78,9.56-2.361
			c6.72-3.549,10.92-10.521,10.92-18.119V703.701C839.659,696.101,835.459,689.13,828.739,685.58z M374.939,906.61H532.16v290.759
			H374.939V906.61z M798.699,1361.191L573.12,1206.794V896.926l225.579-154.396V1361.191z"/>
		<path d="M946.919,775.34c1.682,0,3.399-0.2,5.102-0.641l246.719-63.259c6.382-1.641,11.581-6.24,13.979-12.37
			c2.421-6.13,1.721-13.039-1.839-18.571l-72.901-113.019l225.461-87.73c10.541-4.11,15.762-15.98,11.661-26.52
			c-4.081-10.541-15.98-15.741-26.501-11.661L1099.738,538.4c-5.737,2.229-10.16,6.921-12.059,12.78
			c-1.9,5.849-1.061,12.238,2.26,17.409l71.1,110.23L941.86,735.019c-10.961,2.813-17.562,13.972-14.76,24.931
			C929.48,769.2,937.8,775.34,946.919,775.34z"/>
		<path d="M1363.439,1604.051l-225.461-87.73l72.901-113.021c3.56-5.529,4.26-12.439,1.839-18.569
			c-2.398-6.13-7.598-10.731-13.979-12.37L952.021,1309.1c-10.961-2.83-22.1,3.791-24.92,14.75
			c-2.802,10.961,3.799,22.12,14.76,24.931l219.179,56.199l-71.1,110.231c-3.32,5.169-4.16,11.559-2.26,17.41
			c1.898,5.859,6.321,10.549,12.059,12.779l248.861,96.829c2.441,0.95,4.939,1.401,7.42,1.401c8.2,0,15.939-4.961,19.081-13.061
			C1379.201,1620.029,1373.98,1608.159,1363.439,1604.051z"/>
		<path d="M946.939,1071.79h227.24c11.319,0,20.48-9.171,20.48-20.479c0-11.31-9.161-20.48-20.48-20.48h-227.24
			c-11.319,0-20.48,9.171-20.48,20.48C926.459,1062.619,935.62,1071.79,946.939,1071.79z"/>
		<path d="M943.96,1204.691l227.239,33.419c1.021,0.149,2.02,0.219,3.001,0.219c10,0,18.739-7.319,20.24-17.5
			c1.638-11.188-6.081-21.599-17.281-23.238l-227.24-33.422c-11.52-1.729-21.6,6.102-23.24,17.281
			C925.041,1192.641,932.759,1203.051,943.96,1204.691z"/>
		<path d="M946.919,938.67c0.981,0,2.001-0.069,3-0.219l227.24-33.432c11.2-1.639,18.919-12.049,17.281-23.239
			c-1.641-11.18-12.081-18.921-23.241-17.28L943.96,897.93c-11.201,1.64-18.919,12.05-17.281,23.24
			C928.18,931.351,936.919,938.67,946.919,938.67z"/>
	</g>
</g>
</svg>
