<svg xmlns="http://www.w3.org/2000/svg" xmlns:xlink="http://www.w3.org/1999/xlink" version="1.1" x="0px" y="0px" viewBox="0 0 100 100" style="enable-background:new 0 0 100 100;" xml:space="preserve"><style type="text/css">
	.st0{fill:#010101;}
</style><path class="st0" d="M53,61.8l9.8-9.8l0,0l26.6-26.6L81.1,17L89,9h3.3V7H88H71.4h-20H34.7h-2.9H20.9h-2.8H6.3V18v0.9v16v0.8v15.9  v0.9v16v0.8V85v0.9v6.3v0h13.3l7.6-7.6l0,0l9-9l-8.4-8.4l8.4-8.4l-8.4-8.4l6.9-6.9L53,61.8z M36.2,42.1L36.2,42.1l-8.3-8.4l6.9-6.9  l16.9,16.9l0,0L60,52L53,59L36.2,42.1z M27.9,16.9l6.9-6.9L60,35.2l-7,7L36.1,25.3l0.1-0.1L27.9,16.9z M26.4,18.4l6.9,6.9l-8.4,8.4  l0,0L8.3,50.4V36.4l1.1-1.1L26.4,18.4z M61.4,50.6l-6.9-6.9l8.4-8.4l-0.1-0.1l16.9-16.9l7,7L61.4,50.6z M86.2,9L61.4,33.8l-7-7  l0.5-0.5l7.9-7.8l0,0L72.3,9H86.2z M69.4,9l-8,8l-8-8H69.4z M50.6,9l9.4,9.4l-7,7L36.6,9H50.6z M32.9,9L8.3,33.6V19.7L19,9H32.9z   M8.3,9h7.8l-7.8,7.8V9z M33.4,75.5L18.8,90.2H8.3v-3.5l15.4-15.4l2.7-2.7L33.4,75.5z M26.4,65.8L26.4,65.8L8.3,83.9V70l18.2-18.2  l7,7L26.4,65.8z M8.3,67.1V53.2l18.1-18.1l7,7L8.3,67.1z"></path><path class="st0" d="M84.3,55.5L56.2,83.6l9.8,9.8l28.1-28.1L84.3,55.5z M59,83.6l25.3-25.3l7,7L66,90.5L59,83.6z"></path></svg>