<?xml version="1.0" encoding="utf-8"?>
<!-- Generator: Adobe Illustrator 16.0.0, SVG Export Plug-In . SVG Version: 6.00 Build 0)  -->
<!DOCTYPE svg PUBLIC "-//W3C//DTD SVG 1.1//EN" "http://www.w3.org/Graphics/SVG/1.1/DTD/svg11.dtd">
<svg version="1.1" id="Layer_1" xmlns="http://www.w3.org/2000/svg" xmlns:xlink="http://www.w3.org/1999/xlink" x="0px" y="0px"
	 width="2048px" height="2048px" viewBox="0 0 2048 2048" enable-background="new 0 0 2048 2048" xml:space="preserve">
<g>
	<path d="M1466.323,885.874c2.958,1.82,9.147,2.958,12.788,3.186l236.202,17.066c0.455,0,1.138,0,1.593,0
		c5.689,0,11.378-2.048,15.475-6.144c4.551-4.324,7.281-10.24,7.281-16.611V664.462c0.228-6.371-2.503-12.516-7.281-16.839
		c-4.324-3.868-9.558-5.916-15.246-5.916c-0.684,0-1.365,0-2.275,0l-236.203,22.755c-3.414,0.228-9.317,2.687-12.105,4.187
		C1459.625,672.375,1461.833,885.874,1466.323,885.874z M1717.135,664.462V774.6h-119.695v-98.76L1717.135,664.462z
		 M1591.068,676.75v98.076h-110.137v-87.608L1591.068,676.75z M1480.932,781.198h110.137v93.298l-110.137-7.965V781.198z
		 M1597.439,874.951v-93.753h119.467v102.4L1597.439,874.951z"/>
	<path d="M1873.92,359.083c-2.275-2.048-5.461-2.958-8.42-2.958l-840.817,129.934L182.5,356.125c-3.186,0-6.144,0.91-8.419,2.958
		c-2.048,2.048-3.414,5.006-3.414,8.192v874.951c0,4.097,2.276,7.965,5.917,10.013l842.184,438.5
		c1.593,0.91,3.413,1.365,5.233,1.365s3.641-0.455,5.233-1.365l842.184-438.5c3.641-2.048,6.144-5.688,6.144-10.013V367.274
		C1877.334,364.089,1875.969,361.131,1873.92,359.083z M196.608,382.976l812.829,128.114v572.757l-202.069,35.044l-0.683-495.389
		c0-6.144-4.552-11.605-10.923-12.288l-269.426-27.079c-3.641-0.455-7.281,0.683-10.013,2.959c-2.73,2.503-4.323,5.688-4.323,9.329
		v573.668l-315.392,54.613V382.976z M570.254,652.857c-3.186,0.455-5.688,3.186-5.688,6.371l-0.683,430.308
		c0,3.186,2.503,5.916,5.688,6.371l212.765,24.576v2.503l-245.305,42.553V610.531l214.357,20.708L570.254,652.857z M781.426,640.797
		l0.683,466.716l-205.482-23.894l0.683-418.702L781.426,640.797z M318.351,1296.611l-91.022-47.331L1024,1110.926l56.434,9.785
		l-754.574,179.997L318.351,1296.611z M336.1,1305.941l763.222-181.816l92.388,16.156l-754.574,218.453L336.1,1305.941z
		 M446.691,1363.513l761.629-220.501l94.663,16.384l-751.616,258.73L446.691,1363.513z M560.469,1422.905l757.761-260.779
		l112.185,19.57l-761.173,297.87L560.469,1422.905z M678.115,1484.117l766.635-300.146l119.012,20.708l-779.378,334.733
		L678.115,1484.117z M793.031,1543.965l784.156-337.01l107.861,18.659l-780.971,376.149L793.031,1543.965z M1024,1664.113
		l-111.729-58.026l785.294-378.197l123.107,21.39L1024,1664.113z M1851.393,1224.704l-812.602-141.085V510.862l812.602-128.114
		V1224.704z"/>
	<ellipse cx="595.968" cy="882.233" rx="7.965" ry="14.792"/>
</g>
</svg>
