<svg xmlns="http://www.w3.org/2000/svg" xmlns:xlink="http://www.w3.org/1999/xlink" version="1.1" viewBox="0 0 96 96" x="0px" y="0px"><path d="M2 70c-0.56 0-1.112-0.236-1.508-0.688-0.724-0.832-0.636-2.092 0.196-2.824l46-40c0.752-0.656 1.872-0.656 2.624 0l10.688 9.292v-7.78c0-1.104 0.9-2 2-2h12c1.1 0 2 0.9 2 2v21.7l19.312 16.792c0.832 0.728 0.92 1.992 0.196 2.828s-1.992 0.916-2.824 0.196l-20-17.392c-0.432-0.384-0.688-0.928-0.688-1.508v-20.616h-8v10.168c0 0.784-0.456 1.492-1.168 1.82-0.708 0.324-1.548 0.204-2.144-0.312l-12.688-11.028-44.688 38.86c-0.376 0.332-0.84 0.492-1.308 0.492z" fill="#000000"></path></svg>